<svg xmlns="http://www.w3.org/2000/svg" viewBox="0 0 438.93 168.062" width="438.93" height="168.062"><defs><style>.cls-1{fill:#fff}</style></defs><g id="_2192" data-name="2192"><path class="cls-1" d="M61.454 102.423h-2.917a14.64 14.64 0 01-14.628 14.628H29.271V0H0v146.317h46.831a14.636 14.636 0 0014.623-14.642z"/><path class="cls-1" d="M58.537 131.675a14.645 14.645 0 01-14.633 14.642h14.633a29.26 29.26 0 0029.256-29.266v-87.79A29.266 29.266 0 0058.537 0H0v14.633a14.637 14.637 0 0014.643 14.629h29.261a14.639 14.639 0 0114.633 14.633v87.78zm351.134 14.642V14.633A14.634 14.634 0 01424.308 0h14.622v131.675a14.636 14.636 0 01-14.622 14.642zm-125.245-66.73a50.129 50.129 0 01-24.405 13.524 14.632 14.632 0 11-25.921 9.312v-8.055h-29.26v37.308a14.642 14.642 0 0014.633 14.641h29.264a43.9 43.9 0 0036.779-67.854c-.362.38-.717.756-1.09 1.124zM234.1 43.895a14.627 14.627 0 018.05-13.064V0h-37.31v51.94h29.26zm-102.404 13.91V0h-14.643a14.625 14.625 0 00-14.627 14.633V51.94h14.627a21.201 21.201 0 0114.643 5.864zm58.511-5.865V14.634A14.63 14.63 0 00175.584 0h-14.632v57.805a21.134 21.134 0 0114.632-5.864zm117.053 94.377h14.624a14.632 14.632 0 0014.629-14.642V94.368H307.26zm29.253-94.367V35.836h-.004V14.633A21.157 21.157 0 01342.37 0h-5.857a29.269 29.269 0 00-29.253 29.262v28.543a21.146 21.146 0 0114.624-5.864zm29.789 42.418h-.519v37.308a14.636 14.636 0 0014.622 14.641h14.635V79.21a35.862 35.862 0 01-28.738 15.158z"/></g><g id="_674" data-name="674"><path class="cls-1" d="M163.88 131.675v-14.624h-17.562a14.623 14.623 0 01-14.622-14.624V73.161a14.648 14.648 0 00-14.643-14.64h-14.627v58.53a29.262 29.262 0 0029.27 29.266h17.55a14.644 14.644 0 0014.634-14.642zM248.737 0v29.262a14.63 14.63 0 010 29.259H201.92a14.635 14.635 0 00-14.624 14.64v14.624h61.442a43.893 43.893 0 000-87.785zm-7.955 102.177a8.05 8.05 0 108.048-8.05h-8.048zm-92.14 57.834a8.048 8.048 0 108.043-8.042h-8.043zm-21.601 0a8.047 8.047 0 108.052-8.042h-8.052zm180.219-86.85a14.637 14.637 0 0114.624-14.64l29.264.016a14.627 14.627 0 100-29.253l-8.061-.026V14.633A14.636 14.636 0 01357.72 0h8.063a29.265 29.265 0 0129.257 29.257v29.264a29.26 29.26 0 01-29.257 29.264H307.26z"/><path class="cls-1" d="M351.148 87.785a14.627 14.627 0 0014.635-14.624V43.91a14.631 14.631 0 01-14.635 14.628l-29.264-.016a14.637 14.637 0 00-14.624 14.64v14.624zM204.831 58.52h-29.247a14.64 14.64 0 00-14.632 14.64v58.515a14.644 14.644 0 01-14.634 14.642h14.634a29.262 29.262 0 0029.255-29.266V73.16a14.645 14.645 0 0114.624-14.64z"/></g></svg>